<?xml version="1.0" encoding="UTF-8"?>
<!DOCTYPE svg PUBLIC "-//W3C//DTD SVG 1.1//EN" "http://www.w3.org/Graphics/SVG/1.1/DTD/svg11.dtd">
<svg xmlns="http://www.w3.org/2000/svg" version="1.1" width="192px" height="192px" style="shape-rendering:geometricPrecision; text-rendering:geometricPrecision; image-rendering:optimizeQuality; fill-rule:evenodd; clip-rule:evenodd" xmlns:xlink="http://www.w3.org/1999/xlink">
<g><path style="opacity:1" fill="#319456" d="M 164.5,27.5 C 162.408,27.4386 160.908,26.4386 160,24.5C 159.5,25 159,25.5 158.5,26C 160.706,28.0367 162.706,30.2034 164.5,32.5C 145.406,15.3823 122.906,6.38234 97,5.5C 67.6686,6.13688 43.6686,17.4702 25,39.5C 20.7957,45.8509 17.2957,52.5176 14.5,59.5C 14.5111,57.4534 14.8444,55.4534 15.5,53.5C 15.1667,52.8333 14.8333,52.1667 14.5,51.5C 13.7348,52.6119 12.7348,53.2786 11.5,53.5C 25.3836,25.1499 48.0503,8.31662 79.5,3C 106.131,-1.17107 130.798,3.82893 153.5,18C 157.359,21.0316 161.026,24.1983 164.5,27.5 Z M 77.5,23.5 C 79.8008,24.0604 82.1341,24.5604 84.5,25C 82.7525,25.3519 81.0858,25.8519 79.5,26.5C 77.9519,26.1788 77.2852,25.1788 77.5,23.5 Z M 120.5,24.5 C 123.382,27.3879 123.048,27.8879 119.5,26C 120.056,25.6174 120.389,25.1174 120.5,24.5 Z M 111.5,22.5 C 114.097,22.5332 115.097,23.5332 114.5,25.5C 113.205,24.9017 111.872,24.4017 110.5,24C 111.056,23.6174 111.389,23.1174 111.5,22.5 Z M 130.5,23.5 C 128.415,26.2397 126.748,26.073 125.5,23C 127.36,19.5998 129.026,19.7664 130.5,23.5 Z M 69.5,29.5 C 69.9014,28.009 70.068,26.3423 70,24.5C 71.8259,26.0738 73.9925,26.9071 76.5,27C 74.257,28.1362 71.9237,28.9695 69.5,29.5 Z M 128.5,30.5 C 128.842,29.6618 129.508,29.3284 130.5,29.5C 130.591,31.6977 129.925,32.0311 128.5,30.5 Z"/></g>
<g><path style="opacity:1" fill="#2f9254" d="M 120.5,24.5 C 121.766,16.594 126.099,14.4274 133.5,18C 134.406,19.6995 134.739,21.5328 134.5,23.5C 133.167,23.5 131.833,23.5 130.5,23.5C 131.6,24.6049 132.267,25.9382 132.5,27.5C 131.833,27.5 131.5,27.8333 131.5,28.5C 130.833,28.5 130.5,28.8333 130.5,29.5C 129.508,29.3284 128.842,29.6618 128.5,30.5C 129.626,32.4525 131.292,33.9525 133.5,35C 130.967,34.3889 128.3,33.8889 125.5,33.5C 111.235,27.401 96.5684,26.2344 81.5,30C 78.2561,31.4699 74.9228,32.6366 71.5,33.5C 69.1641,34.3429 66.8307,34.8429 64.5,35C 65.1667,34.3333 65.8333,33.6667 66.5,33C 71.0569,30.9747 75.3902,28.808 79.5,26.5C 81.0858,25.8519 82.7525,25.3519 84.5,25C 82.1341,24.5604 79.8008,24.0604 77.5,23.5C 77.7373,22.209 77.404,21.209 76.5,20.5C 75.8875,14.9434 78.3875,11.9434 84,11.5C 89.8444,13.0258 90.3444,15.0258 85.5,17.5C 84.5224,17.0233 83.6891,16.3567 83,15.5C 79.7499,17.4372 79.9166,19.1039 83.5,20.5C 85.3337,19.2455 87.3337,18.5789 89.5,18.5C 90.1205,22.5764 90.4538,20.2431 90.5,11.5C 94.5,11.5 98.5,11.5 102.5,11.5C 102.64,13.1238 101.973,14.2904 100.5,15C 101.337,16.0113 101.67,17.1779 101.5,18.5C 99.4727,18.3379 97.4727,18.5045 95.5,19C 97.8098,19.4966 100.143,19.6633 102.5,19.5C 102.5,20.8333 102.5,22.1667 102.5,23.5C 103.552,23.6495 104.552,23.4828 105.5,23C 107.333,20.5 109.167,18 111,15.5C 112.786,12.6384 115.119,11.9717 118,13.5C 118.633,17.3474 119.467,21.014 120.5,24.5 Z M 120.5,24.5 C 120.389,25.1174 120.056,25.6174 119.5,26C 123.048,27.8879 123.382,27.3879 120.5,24.5 Z M 111.5,22.5 C 111.389,23.1174 111.056,23.6174 110.5,24C 111.872,24.4017 113.205,24.9017 114.5,25.5C 115.097,23.5332 114.097,22.5332 111.5,22.5 Z M 130.5,23.5 C 129.026,19.7664 127.36,19.5998 125.5,23C 126.748,26.073 128.415,26.2397 130.5,23.5 Z"/></g>
<g><path style="opacity:1" fill="#389159" d="M 76.5,20.5 C 76.2627,21.791 76.596,22.791 77.5,23.5C 77.2852,25.1788 77.9519,26.1788 79.5,26.5C 75.3902,28.808 71.0569,30.9747 66.5,33C 65.8333,33.6667 65.1667,34.3333 64.5,35C 66.8307,34.8429 69.1641,34.3429 71.5,33.5C 63.1328,38.2063 56.1328,44.5396 50.5,52.5C 49.9033,52.2648 49.5699,51.7648 49.5,51C 50.1667,50 50.8333,49 51.5,48C 51.1639,46.9701 50.4972,46.4701 49.5,46.5C 51.2199,43.2689 53.5532,40.4356 56.5,38C 60.7387,34.9103 65.072,32.0769 69.5,29.5C 63.1883,31.1046 57.355,33.7713 52,37.5C 50.9889,36.9444 50.1556,36.2778 49.5,35.5C 49.5,34.8333 49.1667,34.5 48.5,34.5C 47.8333,33.1667 46.8333,32.1667 45.5,31.5C 44.6993,29.9582 44.366,28.2915 44.5,26.5C 47.3252,26.1616 49.4918,27.1616 51,29.5C 50.6948,27.5568 50.6948,25.5568 51,23.5C 53.651,20.924 56.8177,19.5907 60.5,19.5C 60.6586,22.155 61.6586,24.4883 63.5,26.5C 62.7708,23.6811 62.7708,20.6811 63.5,17.5C 65.3351,16.8084 67.1684,17.1417 69,18.5C 69.49,17.2068 69.6567,15.8734 69.5,14.5C 70.8734,14.3433 72.2068,14.51 73.5,15C 74.2291,17.0581 75.2291,18.8914 76.5,20.5 Z M 69.5,29.5 C 71.9237,28.9695 74.257,28.1362 76.5,27C 73.9925,26.9071 71.8259,26.0738 70,24.5C 70.068,26.3423 69.9014,28.009 69.5,29.5 Z"/></g>
<g><path style="opacity:1" fill="#309455" d="M 164.5,27.5 C 186.001,48.2228 191.834,72.8895 182,101.5C 173.262,119.739 159.762,133.072 141.5,141.5C 140.833,141.5 140.167,141.5 139.5,141.5C 139.265,140.903 138.765,140.57 138,140.5C 122.768,146.935 106.935,149.435 90.5,148C 88.9419,147.79 87.6085,147.29 86.5,146.5C 120.195,149.808 148.029,138.808 170,113.5C 185.339,91.1066 186.339,68.1066 173,44.5C 169.533,40.88 166.7,36.88 164.5,32.5C 162.706,30.2034 160.706,28.0367 158.5,26C 159,25.5 159.5,25 160,24.5C 160.908,26.4386 162.408,27.4386 164.5,27.5 Z"/></g>
<g><path style="opacity:1" fill="#3d955e" d="M 45.5,31.5 C 45.1667,32.8333 44.8333,34.1667 44.5,35.5C 45.8333,35.1667 47.1667,34.8333 48.5,34.5C 49.1667,34.5 49.5,34.8333 49.5,35.5C 49.9803,41.3509 47.3137,44.3509 41.5,44.5C 42.1667,51.1667 39.1667,54.1667 32.5,53.5C 32.8808,51.0582 32.2141,50.3915 30.5,51.5C 26.2821,49.9728 25.4488,47.3061 28,43.5C 29.126,42.0564 30.626,41.3898 32.5,41.5C 34.517,42.3891 36.517,42.8891 38.5,43C 33.2701,35.0152 35.6034,31.1819 45.5,31.5 Z M 44.5,35.5 C 44.5,36.8333 44.5,38.1667 44.5,39.5C 41.5,39.8333 40.1667,38.5 40.5,35.5C 41.8333,35.5 43.1667,35.5 44.5,35.5 Z"/></g>
<g><path style="opacity:1" fill="#329258" d="M 152.5,43.5 C 153.492,43.6716 154.158,43.3382 154.5,42.5C 155.167,42.5 155.5,42.1667 155.5,41.5C 157.929,41.415 159.929,40.415 161.5,38.5C 163.887,40.8853 165.887,43.5519 167.5,46.5C 165.643,49.2664 162.976,50.7664 159.5,51C 160.126,51.7504 160.626,52.5838 161,53.5C 163.934,51.2329 167.101,50.5662 170.5,51.5C 172.114,54.1571 171.448,55.9905 168.5,57C 173.251,56.8222 174.917,58.8222 173.5,63C 169.673,64.7897 165.673,65.9564 161.5,66.5C 160.63,62.7033 159.297,59.0366 157.5,55.5C 157.709,54.914 158.043,54.414 158.5,54C 153.576,51.9613 151.576,48.4613 152.5,43.5 Z"/></g>
<g><path style="opacity:1" fill="#1591d5" d="M 125.5,53.5 C 128.228,54.2052 131.061,54.8719 134,55.5C 135.582,60.4721 135.748,65.4721 134.5,70.5C 136.02,73.598 136.854,76.9313 137,80.5C 138.307,81.7717 139.807,82.7717 141.5,83.5C 142.596,88.754 145.596,92.254 150.5,94C 148.259,95.7391 146.592,97.9058 145.5,100.5C 144.675,101.386 143.675,101.719 142.5,101.5C 140.461,96.4341 137.627,91.7675 134,87.5C 132.587,85.3476 131.754,83.0143 131.5,80.5C 130.5,80.5 129.5,80.5 128.5,80.5C 127.833,79.5 127.167,78.5 126.5,77.5C 128.57,77.4173 128.903,76.4173 127.5,74.5C 129.583,70.3662 129.75,66.0329 128,61.5C 125.688,59.5359 123.188,59.2026 120.5,60.5C 119.806,65.3185 119.14,70.1519 118.5,75C 115.882,77.9093 114.382,81.4093 114,85.5C 112.205,88.2768 110.372,90.9434 108.5,93.5C 107.589,95.751 106.256,97.751 104.5,99.5C 105.758,96.3061 106.424,92.9728 106.5,89.5C 107.552,89.6495 108.552,89.4828 109.5,89C 108.773,87.6012 108.273,86.1012 108,84.5C 106.517,87.1609 104.35,88.8275 101.5,89.5C 101.687,82.1557 103.354,75.4891 106.5,69.5C 106.557,70.609 106.89,71.609 107.5,72.5C 105.91,74.4746 104.743,76.8079 104,79.5C 103.327,82.5214 102.993,85.5214 103,88.5C 104.152,86.3513 105.652,84.518 107.5,83C 106.944,82.6174 106.611,82.1174 106.5,81.5C 106.5,80.8333 106.833,80.5 107.5,80.5C 108.313,81.6527 109.313,81.6527 110.5,80.5C 114.478,73.2983 115.644,65.6316 114,57.5C 116.417,55.8724 118.917,54.539 121.5,53.5C 122.702,52.5946 124.036,52.5946 125.5,53.5 Z"/></g>
<g><path style="opacity:1" fill="#0790d7" d="M 106.5,68.5 C 107.833,68.8333 107.833,69.1667 106.5,69.5C 103.354,75.4891 101.687,82.1557 101.5,89.5C 104.35,88.8275 106.517,87.1609 108,84.5C 108.273,86.1012 108.773,87.6012 109.5,89C 108.552,89.4828 107.552,89.6495 106.5,89.5C 106.424,92.9728 105.758,96.3061 104.5,99.5C 103.414,99.62 102.747,100.287 102.5,101.5C 103.189,103.353 104.522,104.519 106.5,105C 114.016,105.666 121.516,105.499 129,104.5C 132.845,104.906 136.679,105.406 140.5,106C 139.386,107.57 138.053,108.903 136.5,110C 131.511,110.499 126.511,110.666 121.5,110.5C 112.844,108.802 103.844,107.802 94.5,107.5C 94.1667,107.167 93.8333,106.833 93.5,106.5C 96.3185,102.084 98.6518,97.4177 100.5,92.5C 98.9547,91.5481 97.288,91.2148 95.5,91.5C 95.8633,93.9115 94.8633,95.4115 92.5,96C 88.618,95.8733 84.7847,96.0399 81,96.5C 74.243,94.0807 67.4097,91.7473 60.5,89.5C 59.5539,89.9867 58.5539,90.3201 57.5,90.5C 53.9359,89.0207 50.2693,87.6873 46.5,86.5C 45.1667,82.5 45.1667,78.5 46.5,74.5C 48.5895,72.436 50.2561,70.1026 51.5,67.5C 51.8333,68.1667 52.1667,68.8333 52.5,69.5C 50.7787,72.9085 50.112,76.5751 50.5,80.5C 58.5057,79.4045 66.5057,79.2379 74.5,80C 75.9973,78.1294 77.9973,77.1294 80.5,77C 81.7111,75.8869 81.7111,74.7202 80.5,73.5C 81,73.1667 81.5,72.8333 82,72.5C 83.7659,73.2335 85.5992,73.5668 87.5,73.5C 86.7265,69.225 88.2265,66.225 92,64.5C 92.4828,63.552 92.6495,62.552 92.5,61.5C 97.5261,61.5467 101.193,63.7134 103.5,68C 104.448,68.4828 105.448,68.6495 106.5,68.5 Z M 90.5,81.5 C 91.675,81.281 92.675,81.6143 93.5,82.5C 91.9483,83.7979 90.9483,83.4646 90.5,81.5 Z"/></g>
<g><path style="opacity:1" fill="#5aa6c2" d="M 126.5,77.5 C 125.008,74.6211 125.341,71.9544 127.5,69.5C 125.985,67.4527 125.151,65.1193 125,62.5C 124.282,61.5494 123.449,61.3828 122.5,62C 121.703,65.7454 121.203,69.5787 121,73.5C 118.278,77.3541 116.611,81.6874 116,86.5C 114.318,89.6806 111.818,92.0139 108.5,93.5C 110.372,90.9434 112.205,88.2768 114,85.5C 114.382,81.4093 115.882,77.9093 118.5,75C 119.14,70.1519 119.806,65.3185 120.5,60.5C 123.188,59.2026 125.688,59.5359 128,61.5C 129.75,66.0329 129.583,70.3662 127.5,74.5C 128.903,76.4173 128.57,77.4173 126.5,77.5 Z"/></g>
<g><path style="opacity:1" fill="#339456" d="M 21.5,56.5 C 25.7443,56.7477 29.5776,58.081 33,60.5C 34.6703,65.5014 33.0037,68.5014 28,69.5C 24.9148,69.0434 21.9148,68.3767 19,67.5C 18.5302,65.4507 19.3635,64.1174 21.5,63.5C 23.5683,63.9672 25.5683,64.6339 27.5,65.5C 28.5,65.1667 29.1667,64.5 29.5,63.5C 26.8564,62.6042 24.1897,61.7709 21.5,61C 20.2721,59.5098 20.2721,58.0098 21.5,56.5 Z"/></g>
<g><path style="opacity:1" fill="#5ca9c9" d="M 106.5,68.5 C 105.448,68.6495 104.448,68.4828 103.5,68C 101.193,63.7134 97.5261,61.5467 92.5,61.5C 92.6495,62.552 92.4828,63.552 92,64.5C 88.2265,66.225 86.7265,69.225 87.5,73.5C 85.5992,73.5668 83.7659,73.2335 82,72.5C 81.5,72.8333 81,73.1667 80.5,73.5C 81.7111,74.7202 81.7111,75.8869 80.5,77C 77.9973,77.1294 75.9973,78.1294 74.5,80C 66.5057,79.2379 58.5057,79.4045 50.5,80.5C 50.112,76.5751 50.7787,72.9085 52.5,69.5C 52.1667,68.8333 51.8333,68.1667 51.5,67.5C 50.2561,70.1026 48.5895,72.436 46.5,74.5C 45.1667,78.5 45.1667,82.5 46.5,86.5C 50.2693,87.6873 53.9359,89.0207 57.5,90.5C 58.5539,90.3201 59.5539,89.9867 60.5,89.5C 67.4097,91.7473 74.243,94.0807 81,96.5C 84.7847,96.0399 88.618,95.8733 92.5,96C 94.8633,95.4115 95.8633,93.9115 95.5,91.5C 97.288,91.2148 98.9547,91.5481 100.5,92.5C 98.6518,97.4177 96.3185,102.084 93.5,106.5C 93.8333,106.833 94.1667,107.167 94.5,107.5C 103.844,107.802 112.844,108.802 121.5,110.5C 112.827,110.666 104.16,110.5 95.5,110C 90.4764,107.293 90.3098,104.126 95,100.5C 95.6667,99.1667 95.6667,97.8333 95,96.5C 93.5267,98.0071 91.6934,98.6738 89.5,98.5C 79.6105,98.5158 70.1105,96.1825 61,91.5C 60.2753,92.0585 59.4419,92.3918 58.5,92.5C 53.8153,90.8278 49.1487,89.1611 44.5,87.5C 43.1723,85.5564 42.839,83.5564 43.5,81.5C 43.6716,80.5084 43.3382,79.8417 42.5,79.5C 42.5,78.1667 42.5,76.8333 42.5,75.5C 45.9259,73.4008 48.2593,70.4008 49.5,66.5C 50.6888,65.5713 52.0222,65.238 53.5,65.5C 53.4135,69.8566 53.0802,74.19 52.5,78.5C 55.5682,78.4533 58.5682,77.9533 61.5,77C 60.6565,74.1621 58.8232,72.3287 56,71.5C 55.9565,68.5248 56.1231,65.5248 56.5,62.5C 55.5,62.5 54.5,62.5 53.5,62.5C 53.6599,54.9897 56.9932,52.9897 63.5,56.5C 66.301,54.9272 68.9677,53.0938 71.5,51C 73.4727,50.5045 75.4727,50.3379 77.5,50.5C 77.5,51.8333 77.5,53.1667 77.5,54.5C 79.3904,54.2965 80.8904,54.9632 82,56.5C 82.3333,55.1667 82.6667,53.8333 83,52.5C 84.7141,51.0745 86.0475,51.4078 87,53.5C 87.3333,53.1667 87.6667,52.8333 88,52.5C 90.3549,53.8081 92.8549,54.8081 95.5,55.5C 96.6405,56.4255 96.6405,57.2588 95.5,58C 98.0336,59.8486 100.7,61.5153 103.5,63C 104.223,65.0183 105.223,66.8516 106.5,68.5 Z M 75.5,55.5 C 77.1765,56.1834 77.8432,57.5168 77.5,59.5C 80.0792,59.9167 82.2458,59.25 84,57.5C 85.8161,58.3295 87.6494,59.1628 89.5,60C 88.552,60.4828 87.552,60.6495 86.5,60.5C 87.4075,64.1244 87.0741,67.791 85.5,71.5C 83.9884,70.0094 82.9884,68.1761 82.5,66C 79.4333,64.8358 77.7666,65.8358 77.5,69C 77.7549,70.3261 78.4216,71.3261 79.5,72C 78.6634,73.0113 78.33,74.1779 78.5,75.5C 75.6405,75.0842 73.4738,76.0842 72,78.5C 69.8649,77.8729 67.6982,77.3729 65.5,77C 67.8426,75.8334 70.176,74.5001 72.5,73C 69.9745,70.3933 69.9745,67.7266 72.5,65C 71.2871,62.359 72.2871,61.1924 75.5,61.5C 75.5,59.5 75.5,57.5 75.5,55.5 Z"/></g>
<g><path style="opacity:1" fill="#3a955d" d="M 172.5,65.5 C 177.289,66.3804 177.622,68.2137 173.5,71C 175.838,72.5082 176.838,74.6748 176.5,77.5C 174.158,77.4959 172.158,76.6625 170.5,75C 167.854,74.5026 165.187,74.3359 162.5,74.5C 162.238,73.0222 162.571,71.6888 163.5,70.5C 167.297,70.1053 170.297,68.4386 172.5,65.5 Z"/></g>
<g><path style="opacity:1" fill="#5ea9c5" d="M 121.5,53.5 C 118.917,54.539 116.417,55.8724 114,57.5C 115.644,65.6316 114.478,73.2983 110.5,80.5C 109.313,81.6527 108.313,81.6527 107.5,80.5C 109.837,76.7837 111.837,72.7837 113.5,68.5C 111.331,64.7099 110.998,60.7099 112.5,56.5C 115.219,53.9398 118.219,52.9398 121.5,53.5 Z"/></g>
<g><path style="opacity:1" fill="#309356" d="M 155.5,41.5 C 154.833,41.5 154.5,41.8333 154.5,42.5C 153.508,42.3284 152.842,42.6618 152.5,43.5C 150.345,43.628 148.345,43.128 146.5,42C 144.559,39.5464 142.225,37.713 139.5,36.5C 160.1,55.3367 164.267,77.3367 152,102.5C 149.283,105.71 146.783,109.044 144.5,112.5C 143.833,112.5 143.5,112.833 143.5,113.5C 141.46,115.177 139.46,116.844 137.5,118.5C 137.167,118.5 136.833,118.5 136.5,118.5C 135.833,118.5 135.5,118.833 135.5,119.5C 134.29,119.932 133.29,120.599 132.5,121.5C 129.923,121.455 127.923,122.455 126.5,124.5C 110.299,131.36 93.966,132.027 77.5,126.5C 75.27,125.039 72.9367,123.539 70.5,122C 73.4867,122.063 76.32,122.897 79,124.5C 79.4643,123.906 79.631,123.239 79.5,122.5C 98.1742,128.17 115.841,126.003 132.5,116C 134.24,114.483 135.906,112.983 137.5,111.5C 146.027,105.288 151.36,96.9549 153.5,86.5C 155.662,74.8202 153.829,63.8202 148,53.5C 141.843,45.1683 134.343,38.5017 125.5,33.5C 128.3,33.8889 130.967,34.3889 133.5,35C 131.292,33.9525 129.626,32.4525 128.5,30.5C 129.925,32.0311 130.591,31.6977 130.5,29.5C 131.167,29.5 131.5,29.1667 131.5,28.5C 132.167,28.5 132.5,28.1667 132.5,27.5C 135.634,26.0991 138.634,24.4325 141.5,22.5C 143.23,23.0256 144.564,24.0256 145.5,25.5C 144.408,28.4533 143.908,31.4533 144,34.5C 149.808,27.4257 154.642,28.0923 158.5,36.5C 157.74,38.3604 156.74,40.027 155.5,41.5 Z M 150.5,34.5 C 154.253,35.4855 154.253,36.8188 150.5,38.5C 149.833,38.1667 149.167,37.8333 148.5,37.5C 149.193,36.4822 149.859,35.4822 150.5,34.5 Z M 139.5,36.5 C 137.063,36.114 135.063,34.9473 133.5,33C 135.5,31 137.5,31 139.5,33C 138.316,34.1455 138.316,35.3121 139.5,36.5 Z"/></g>
<g><path style="opacity:1" fill="#6eb2c7" d="M 107.5,72.5 C 108.077,76.0798 107.077,79.0798 104.5,81.5C 104.97,82.463 105.637,82.463 106.5,81.5C 106.611,82.1174 106.944,82.6174 107.5,83C 105.652,84.518 104.152,86.3513 103,88.5C 102.993,85.5214 103.327,82.5214 104,79.5C 104.743,76.8079 105.91,74.4746 107.5,72.5 Z"/></g>
<g><path style="opacity:1" fill="#68a8c6" d="M 93.5,78.5 C 95.8333,78.5 98.1667,78.5 100.5,78.5C 100.5,79.8333 100.5,81.1667 100.5,82.5C 98.8333,82.5 97.1667,82.5 95.5,82.5C 95.7135,84.1439 95.3802,85.6439 94.5,87C 92.5273,87.4955 90.5273,87.6621 88.5,87.5C 88.3367,85.1432 88.5034,82.8098 89,80.5C 90.6225,79.9011 92.1225,79.2344 93.5,78.5 Z M 90.5,81.5 C 90.9483,83.4646 91.9483,83.7979 93.5,82.5C 92.675,81.6143 91.675,81.281 90.5,81.5 Z"/></g>
<g><path style="opacity:1" fill="#248f4e" d="M 14.5,59.5 C 8.82196,94.3108 21.4886,120.144 52.5,137C 63.2633,142.252 74.5967,145.418 86.5,146.5C 87.6085,147.29 88.9419,147.79 90.5,148C 106.935,149.435 122.768,146.935 138,140.5C 138.765,140.57 139.265,140.903 139.5,141.5C 129.888,146.62 119.555,149.453 108.5,150C 87.6935,152.078 68.0268,148.411 49.5,139C 45.8333,138 42.1667,137 38.5,136C 26.3109,124.544 17.3109,111.044 11.5,95.5C 10.3995,93.7226 9.56619,91.7226 9,89.5C 7.76237,77.3014 8.59571,65.3014 11.5,53.5C 12.7348,53.2786 13.7348,52.6119 14.5,51.5C 14.8333,52.1667 15.1667,52.8333 15.5,53.5C 14.8444,55.4534 14.5111,57.4534 14.5,59.5 Z"/></g>
<g><path style="opacity:1" fill="#339457" d="M 157.5,106.5 C 157.5,105.833 157.167,105.5 156.5,105.5C 155.489,103.598 155.322,101.598 156,99.5C 158.046,97.6239 159.879,95.6239 161.5,93.5C 159.886,84.6243 163.553,81.4576 172.5,84C 175.895,87.2602 176.229,90.7602 173.5,94.5C 170.215,95.3236 166.882,95.8236 163.5,96C 165.746,97.0395 167.913,98.2062 170,99.5C 170.49,100.793 170.657,102.127 170.5,103.5C 167.234,103.371 164.234,102.371 161.5,100.5C 161.167,100.833 160.833,101.167 160.5,101.5C 162.63,103.598 164.963,105.431 167.5,107C 167.07,108.434 166.236,109.601 165,110.5C 162.838,108.504 160.338,107.17 157.5,106.5 Z M 166.5,88.5 C 167.568,87.5655 168.901,87.2322 170.5,87.5C 170.657,88.8734 170.49,90.2068 170,91.5C 169.578,89.5743 168.411,88.5743 166.5,88.5 Z"/></g>
<g><path style="opacity:1" fill="#5eacca" d="M 153.5,86.5 C 151.36,96.9549 146.027,105.288 137.5,111.5C 131.974,111.821 126.64,111.488 121.5,110.5C 126.511,110.666 131.511,110.499 136.5,110C 138.053,108.903 139.386,107.57 140.5,106C 136.679,105.406 132.845,104.906 129,104.5C 121.516,105.499 114.016,105.666 106.5,105C 104.522,104.519 103.189,103.353 102.5,101.5C 102.747,100.287 103.414,99.62 104.5,99.5C 106.256,97.751 107.589,95.751 108.5,93.5C 108.613,96.0488 107.946,98.3821 106.5,100.5C 106.977,101.478 107.643,102.311 108.5,103C 112.195,103.318 115.862,103.818 119.5,104.5C 125.122,100.509 130.789,100.509 136.5,104.5C 138.333,103.948 140,103.115 141.5,102C 138.056,96.2239 134.223,90.7239 130,85.5C 129.648,83.7525 129.148,82.0858 128.5,80.5C 129.5,80.5 130.5,80.5 131.5,80.5C 131.754,83.0143 132.587,85.3476 134,87.5C 137.627,91.7675 140.461,96.4341 142.5,101.5C 143.675,101.719 144.675,101.386 145.5,100.5C 146.592,97.9058 148.259,95.7391 150.5,94C 145.596,92.254 142.596,88.754 141.5,83.5C 139.807,82.7717 138.307,81.7717 137,80.5C 136.854,76.9313 136.02,73.598 134.5,70.5C 135.748,65.4721 135.582,60.4721 134,55.5C 131.061,54.8719 128.228,54.2052 125.5,53.5C 125.435,53.0618 125.601,52.7284 126,52.5C 129,53.1667 132,53.8333 135,54.5C 136.838,57.7078 137.671,61.2078 137.5,65C 137.4,67.3023 136.733,69.3023 135.5,71C 137.155,73.5074 137.989,76.3408 138,79.5C 139.892,80.13 141.559,81.13 143,82.5C 144.244,85.9823 146.244,88.9823 149,91.5C 148.734,88.0992 150.234,86.4326 153.5,86.5 Z"/></g>
<g><path style="opacity:1" fill="#359459" d="M 156.5,105.5 C 157.167,105.5 157.5,105.833 157.5,106.5C 157.5,107.5 157.5,108.5 157.5,109.5C 162.744,110.163 163.744,112.663 160.5,117C 158.99,117.85 157.49,118.683 156,119.5C 153.916,118.231 151.749,117.231 149.5,116.5C 149.466,119.199 150.133,121.699 151.5,124C 150.833,124.667 150.167,125.333 149.5,126C 145.314,125.563 141.314,124.563 137.5,123C 140.159,125.439 141.159,128.272 140.5,131.5C 139.549,132.326 138.549,132.492 137.5,132C 135.994,129.667 134.327,127.5 132.5,125.5C 131.239,127.562 131.739,129.228 134,130.5C 134.494,132.134 134.66,133.801 134.5,135.5C 132.856,135.714 131.356,135.38 130,134.5C 127.965,131.439 126.799,128.105 126.5,124.5C 127.923,122.455 129.923,121.455 132.5,121.5C 134.179,121.715 135.179,121.048 135.5,119.5C 135.5,118.833 135.833,118.5 136.5,118.5C 136.833,119.833 137.167,119.833 137.5,118.5C 141.734,119.953 143.734,118.287 143.5,113.5C 144.167,113.5 144.5,113.167 144.5,112.5C 145.675,112.719 146.675,112.386 147.5,111.5C 148.994,107.252 151.994,105.252 156.5,105.5 Z"/></g>
<g><path style="opacity:1" fill="#339357" d="M 49.5,46.5 C 50.4972,46.4701 51.1639,46.9701 51.5,48C 50.8333,49 50.1667,50 49.5,51C 49.5699,51.7648 49.9033,52.2648 50.5,52.5C 45.5957,59.2968 42.929,66.9635 42.5,75.5C 42.5,76.8333 42.5,78.1667 42.5,79.5C 42.3284,80.4916 42.6618,81.1583 43.5,81.5C 42.839,83.5564 43.1723,85.5564 44.5,87.5C 49.8333,105.5 61.5,117.167 79.5,122.5C 79.631,123.239 79.4643,123.906 79,124.5C 76.32,122.897 73.4867,122.063 70.5,122C 72.9367,123.539 75.27,125.039 77.5,126.5C 57.8257,120.325 44.9924,107.325 39,87.5C 35.9271,71.9276 39.4271,58.2609 49.5,46.5 Z"/></g>
<g><path style="opacity:1" fill="#3b985d" d="M 18.5,70.5 C 22.8333,70.5 27.1667,70.5 31.5,70.5C 30.6555,79.6568 32.3222,88.4902 36.5,97C 36.0946,97.9454 35.428,98.6121 34.5,99C 35.4601,100.419 36.2935,101.919 37,103.5C 38.9376,102.14 40.6043,102.473 42,104.5C 43.655,107.153 45.655,109.486 48,111.5C 48.2734,113.101 48.7734,114.601 49.5,116C 56.977,116.942 57.3103,118.942 50.5,122C 47.9107,123.314 45.2441,123.981 42.5,124C 41.4258,123.261 40.7591,122.261 40.5,121C 41.5767,118.117 42.41,115.283 43,112.5C 40.1118,114.794 36.9451,115.961 33.5,116C 32.5494,115.282 32.3828,114.449 33,113.5C 35.0795,111.877 37.2462,110.377 39.5,109C 38.2775,105.777 35.9441,104.111 32.5,104C 31.2986,103.097 30.4652,101.931 30,100.5C 28.3333,101.167 26.6667,101.833 25,102.5C 22.8237,99.3342 23.657,97.1675 27.5,96C 25.1902,95.5034 22.8568,95.3367 20.5,95.5C 20.33,94.1779 20.6634,93.0113 21.5,92C 24.1494,91.5477 26.6494,90.7143 29,89.5C 28.9813,87.8925 28.8146,86.2259 28.5,84.5C 25.091,84.7507 21.7577,84.4173 18.5,83.5C 17.1339,80.7433 17.8005,78.5767 20.5,77C 17.4414,75.6035 16.7747,73.4368 18.5,70.5 Z"/></g>
<g><path style="opacity:1" fill="#0b8d3f" d="M 33.5,145.5 C 32.209,145.263 31.209,145.596 30.5,146.5C 28.1878,148.146 26.1878,150.146 24.5,152.5C 21.577,153.163 20.9103,154.83 22.5,157.5C 24.2251,158.015 25.8917,158.682 27.5,159.5C 25.061,163.143 23.3943,167.143 22.5,171.5C 18.5817,171.791 16.0817,169.791 15,165.5C 12.7904,164.251 10.6237,164.418 8.5,166C 7.35394,168.144 5.85394,169.977 4,171.5C 2.98894,170.944 2.15561,170.278 1.5,169.5C 1.33356,160.494 1.50023,151.494 2,142.5C 2.43786,139.624 3.43786,136.957 5,134.5C 7.51095,132.321 9.67761,129.821 11.5,127C 12.8333,126.333 14.1667,126.333 15.5,127C 20.3608,134.36 26.3608,140.526 33.5,145.5 Z"/></g>
<g><path style="opacity:1" fill="#068d3d" d="M 175.5,133.5 C 181.295,134.454 185.128,137.788 187,143.5C 187.466,151.207 187.633,158.707 187.5,166C 187.034,168.123 185.867,169.623 184,170.5C 181.312,168.815 179.312,166.481 178,163.5C 175.779,166.875 173.112,169.875 170,172.5C 169.26,170.681 168.093,169.348 166.5,168.5C 165.766,167.292 165.433,165.959 165.5,164.5C 164.127,164.657 162.793,164.49 161.5,164C 163.803,161.227 165.803,158.394 167.5,155.5C 168.5,155.5 169.5,155.5 170.5,155.5C 170.461,152.465 169.461,149.798 167.5,147.5C 168.843,145.317 168.51,143.317 166.5,141.5C 168.895,138.139 171.895,135.472 175.5,133.5 Z"/></g>
<g><path style="opacity:1" fill="#529f72" d="M 11.5,95.5 C 17.3109,111.044 26.3109,124.544 38.5,136C 42.1667,137 45.8333,138 49.5,139C 68.0268,148.411 87.6935,152.078 108.5,150C 119.555,149.453 129.888,146.62 139.5,141.5C 140.167,141.5 140.833,141.5 141.5,141.5C 127.385,150.238 111.885,154.238 95,153.5C 76.2906,154.203 59.1239,149.537 43.5,139.5C 42.3264,141.234 40.6597,142.234 38.5,142.5C 36.3069,142.281 34.3069,141.615 32.5,140.5C 32.1667,140.5 31.8333,140.5 31.5,140.5C 31.5,139.833 31.1667,139.5 30.5,139.5C 30.5,138.833 30.1667,138.5 29.5,138.5C 29.1583,137.662 28.4916,137.328 27.5,137.5C 27.5,136.833 27.1667,136.5 26.5,136.5C 26.5,135.833 26.1667,135.5 25.5,135.5C 25.5,134.833 25.1667,134.5 24.5,134.5C 24.5,133.833 24.1667,133.5 23.5,133.5C 21.0568,130.948 19.3901,127.948 18.5,124.5C 20.0419,123.837 21.7086,123.17 23.5,122.5C 17.5919,114.35 13.5919,105.35 11.5,95.5 Z"/></g>
<g><path style="opacity:1" fill="#7abe96" d="M 182.5,131.5 C 179.429,129.747 177.096,130.414 175.5,133.5C 171.895,135.472 168.895,138.139 166.5,141.5C 137.472,157.049 106.472,163.049 73.5,159.5C 59.5199,156.703 46.1865,152.036 33.5,145.5C 26.3608,140.526 20.3608,134.36 15.5,127C 14.1667,126.333 12.8333,126.333 11.5,127C 9.67761,129.821 7.51095,132.321 5,134.5C 3.43786,136.957 2.43786,139.624 2,142.5C 1.50023,151.494 1.33356,160.494 1.5,169.5C 0.833333,165.5 0.166667,161.5 -0.5,157.5C -0.5,154.833 -0.5,152.167 -0.5,149.5C -0.576768,138.322 4.0899,129.656 13.5,123.5C 15.1973,124.912 16.864,125.246 18.5,124.5C 19.3901,127.948 21.0568,130.948 23.5,133.5C 24.1667,133.5 24.5,133.833 24.5,134.5C 25.1667,134.5 25.5,134.833 25.5,135.5C 26.1667,135.5 26.5,135.833 26.5,136.5C 27.1667,136.5 27.5,136.833 27.5,137.5C 27.8417,138.338 28.5084,138.672 29.5,138.5C 30.1667,138.5 30.5,138.833 30.5,139.5C 31.1667,139.5 31.5,139.833 31.5,140.5C 31.8333,140.5 32.1667,140.5 32.5,140.5C 34.0038,142.836 36.0038,144.669 38.5,146C 66.1734,157.728 94.84,160.728 124.5,155C 133.895,152.202 143.228,149.202 152.5,146C 152.727,143.631 152.893,141.131 153,138.5C 160.263,133.971 166.763,128.638 172.5,122.5C 176.488,124.852 179.821,127.852 182.5,131.5 Z M 34.5,153.5 C 38.1331,153.443 38.2998,154.443 35,156.5C 33.3335,155.66 33.1669,156.16 34.5,158C 33.0597,160.032 32.393,159.698 32.5,157C 32.8618,155.566 33.5285,154.399 34.5,153.5 Z"/></g>
<g><path style="opacity:1" fill="#208950" d="M 170.5,125.5 C 171.833,125.5 173.167,125.5 174.5,125.5C 170.945,133.882 164.778,139.548 156,142.5C 154.623,141.964 154.623,140.964 156,139.5C 161.997,136.002 166.831,131.336 170.5,125.5 Z"/></g>
<g><path style="opacity:1" fill="#328b53" d="M 33.5,145.5 C 46.1865,152.036 59.5199,156.703 73.5,159.5C 71.396,159.201 69.396,159.534 67.5,160.5C 70.3908,161.678 73.3908,162.345 76.5,162.5C 76.5,163.833 76.5,165.167 76.5,166.5C 77.5,166.5 78.5,166.5 79.5,166.5C 79.5,167.167 79.5,167.833 79.5,168.5C 77.8333,168.5 76.1667,168.5 74.5,168.5C 75.038,166.883 75.3713,165.216 75.5,163.5C 72.9591,162.897 70.6257,162.897 68.5,163.5C 68.1667,163.5 67.8333,163.5 67.5,163.5C 65.9007,161.271 63.9007,160.938 61.5,162.5C 61.5,161.833 61.1667,161.5 60.5,161.5C 57.0785,158.804 53.0785,157.47 48.5,157.5C 48.5,156.833 48.1667,156.5 47.5,156.5C 46.2946,155.314 44.9613,155.314 43.5,156.5C 42.794,155.443 42.4607,155.776 42.5,157.5C 41.4819,156.708 41.1486,155.041 41.5,152.5C 39.0712,152.415 37.0712,151.415 35.5,149.5C 34.8333,149.833 34.1667,150.167 33.5,150.5C 32.6114,148.993 31.6114,147.66 30.5,146.5C 31.209,145.596 32.209,145.263 33.5,145.5 Z"/></g>
<g><path style="opacity:1" fill="#c34339" d="M 167.5,147.5 C 169.461,149.798 170.461,152.465 170.5,155.5C 169.5,155.5 168.5,155.5 167.5,155.5C 166.198,153.178 164.198,151.845 161.5,151.5C 158.833,151.833 158.833,152.167 161.5,152.5C 161.5,153.167 161.5,153.833 161.5,154.5C 161.5,155.167 161.833,155.5 162.5,155.5C 164.652,156.077 164.985,157.244 163.5,159C 160.394,160.636 157.227,162.136 154,163.5C 152.56,162.852 151.06,162.519 149.5,162.5C 149.5,163.833 149.5,165.167 149.5,166.5C 148.833,166.5 148.167,166.5 147.5,166.5C 144.759,164.025 142.759,161.025 141.5,157.5C 142.665,155.891 143.999,155.557 145.5,156.5C 145.833,157.833 146.167,157.833 146.5,156.5C 146.414,155.504 146.748,154.671 147.5,154C 151.4,152.435 155.066,150.435 158.5,148C 160.134,147.506 161.801,147.34 163.5,147.5C 164.644,148.183 164.644,147.849 163.5,146.5C 163.694,144.088 165.027,143.088 167.5,143.5C 167.5,144.833 167.5,146.167 167.5,147.5 Z"/></g>
<g><path style="opacity:1" fill="#90c1a6" d="M 141.5,157.5 C 142.759,161.025 144.759,164.025 147.5,166.5C 145.393,167.468 143.059,167.802 140.5,167.5C 140.442,162.661 138.109,159.995 133.5,159.5C 135.961,158.469 138.627,157.802 141.5,157.5 Z"/></g>
<g><path style="opacity:1" fill="#208c49" d="M 166.5,141.5 C 168.51,143.317 168.843,145.317 167.5,147.5C 167.5,146.167 167.5,144.833 167.5,143.5C 165.027,143.088 163.694,144.088 163.5,146.5C 163.5,146.833 163.5,147.167 163.5,147.5C 161.801,147.34 160.134,147.506 158.5,148C 155.066,150.435 151.4,152.435 147.5,154C 146.748,154.671 146.414,155.504 146.5,156.5C 146.167,156.5 145.833,156.5 145.5,156.5C 143.999,155.557 142.665,155.891 141.5,157.5C 138.627,157.802 135.961,158.469 133.5,159.5C 130.652,160.772 127.652,161.605 124.5,162C 125.38,163.356 125.714,164.856 125.5,166.5C 124.041,166.567 122.708,166.234 121.5,165.5C 121.585,164.005 120.919,163.005 119.5,162.5C 114.275,163.923 108.942,164.757 103.5,165C 102.069,165.465 100.903,166.299 100,167.5C 99.5,167 99,166.5 98.5,166C 92.5184,165.001 86.5184,164.668 80.5,165C 79.944,165.383 79.6107,165.883 79.5,166.5C 78.5,166.5 77.5,166.5 76.5,166.5C 76.5,165.167 76.5,163.833 76.5,162.5C 73.3908,162.345 70.3908,161.678 67.5,160.5C 69.396,159.534 71.396,159.201 73.5,159.5C 106.472,163.049 137.472,157.049 166.5,141.5 Z"/></g>
<g><path style="opacity:1" fill="#c24138" d="M 30.5,146.5 C 31.6114,147.66 32.6114,148.993 33.5,150.5C 34.1667,150.167 34.8333,149.833 35.5,149.5C 37.0712,151.415 39.0712,152.415 41.5,152.5C 41.1486,155.041 41.4819,156.708 42.5,157.5C 43.1667,157.5 43.5,157.167 43.5,156.5C 44.9613,155.314 46.2946,155.314 47.5,156.5C 48.1667,156.5 48.5,156.833 48.5,157.5C 53.0785,157.47 57.0785,158.804 60.5,161.5C 60.4607,163.224 60.794,163.557 61.5,162.5C 63.9007,160.938 65.9007,161.271 67.5,163.5C 67.8333,164.833 68.1667,164.833 68.5,163.5C 70.6257,162.897 72.9591,162.897 75.5,163.5C 75.3713,165.216 75.038,166.883 74.5,168.5C 74.5,169.5 74.5,170.5 74.5,171.5C 77.861,173.484 79.5277,172.484 79.5,168.5C 79.5,167.833 79.5,167.167 79.5,166.5C 79.6107,165.883 79.944,165.383 80.5,165C 86.5184,164.668 92.5184,165.001 98.5,166C 99,166.5 99.5,167 100,167.5C 100.903,166.299 102.069,165.465 103.5,165C 108.942,164.757 114.275,163.923 119.5,162.5C 120.919,163.005 121.585,164.005 121.5,165.5C 121.835,166.664 121.835,167.997 121.5,169.5C 121.5,170.167 121.833,170.5 122.5,170.5C 123.11,171.391 123.443,172.391 123.5,173.5C 120.214,174.207 116.881,174.54 113.5,174.5C 113.167,173.167 112.833,173.167 112.5,174.5C 109.219,176.17 105.886,176.504 102.5,175.5C 102.5,174.833 102.167,174.5 101.5,174.5C 101.167,173.167 100.833,173.167 100.5,174.5C 99.2438,174.461 98.2438,174.961 97.5,176C 88.9179,176.72 80.2512,176.054 71.5,174C 70.0577,173.623 69.0577,172.79 68.5,171.5C 65.9669,174.23 63.9669,173.897 62.5,170.5C 62.1667,169.167 61.8333,169.167 61.5,170.5C 58.8367,172.17 57.17,171.503 56.5,168.5C 56.5,167.833 56.1667,167.5 55.5,167.5C 52.9272,168.555 50.2605,168.722 47.5,168C 45.5743,167.578 44.5743,166.411 44.5,164.5C 44.1667,163.167 43.8333,163.167 43.5,164.5C 40.5398,165.849 38.8731,164.849 38.5,161.5C 38.1667,160.167 37.8333,160.167 37.5,161.5C 32.4015,162.612 29.0682,160.612 27.5,155.5C 26.2638,156.246 24.9305,156.579 23.5,156.5C 23.4326,155.041 23.7659,153.708 24.5,152.5C 26.1878,150.146 28.1878,148.146 30.5,146.5 Z M 34.5,153.5 C 33.5285,154.399 32.8618,155.566 32.5,157C 32.393,159.698 33.0597,160.032 34.5,158C 33.1669,156.16 33.3335,155.66 35,156.5C 38.2998,154.443 38.1331,153.443 34.5,153.5 Z M 105.5,167.5 C 106.239,167.369 106.906,167.536 107.5,168C 104.852,172.833 104.185,172.666 105.5,167.5 Z M 92.5,168.5 C 96.3298,169.141 96.9965,170.807 94.5,173.5C 93.438,171.978 92.7713,170.312 92.5,168.5 Z M 88.5,171.5 C 89.7733,172.077 89.7733,172.743 88.5,173.5C 87.537,173.03 87.537,172.363 88.5,171.5 Z"/></g>
<g><path style="opacity:1" fill="#8eb998" d="M 50.5,160.5 C 54.4234,161.983 54.4234,163.65 50.5,165.5C 47.8387,163.828 47.8387,162.161 50.5,160.5 Z"/></g>
<g><path style="opacity:1" fill="#5b9d78" d="M 161.5,151.5 C 164.198,151.845 166.198,153.178 167.5,155.5C 165.803,158.394 163.803,161.227 161.5,164C 162.793,164.49 164.127,164.657 165.5,164.5C 165.433,165.959 165.766,167.292 166.5,168.5C 166.187,171.247 166.52,173.914 167.5,176.5C 170.055,173.633 173.222,171.633 177,170.5C 178.03,170.836 178.53,171.503 178.5,172.5C 177.883,172.389 177.383,172.056 177,171.5C 174.205,173.293 171.705,175.46 169.5,178C 167.975,179.009 166.308,179.509 164.5,179.5C 164.5,174.833 164.5,170.167 164.5,165.5C 155.456,168.847 146.456,172.18 137.5,175.5C 143.763,171.536 150.43,168.369 157.5,166C 158.654,165.086 158.487,164.253 157,163.5C 154.816,165.175 152.316,166.175 149.5,166.5C 149.5,165.167 149.5,163.833 149.5,162.5C 151.06,162.519 152.56,162.852 154,163.5C 157.227,162.136 160.394,160.636 163.5,159C 164.985,157.244 164.652,156.077 162.5,155.5C 161.833,155.5 161.5,155.167 161.5,154.5C 161.5,153.833 161.5,153.167 161.5,152.5C 161.5,152.167 161.5,151.833 161.5,151.5 Z"/></g>
<g><path style="opacity:1" fill="#c2473d" d="M 133.5,159.5 C 138.109,159.995 140.442,162.661 140.5,167.5C 140.423,168.75 139.756,169.583 138.5,170C 134.912,170.147 131.579,170.98 128.5,172.5C 127.5,170.5 126.5,168.5 125.5,166.5C 125.714,164.856 125.38,163.356 124.5,162C 127.652,161.605 130.652,160.772 133.5,159.5 Z"/></g>
<g><path style="opacity:1" fill="#8fc9ab" d="M 121.5,165.5 C 122.708,166.234 124.041,166.567 125.5,166.5C 126.5,168.5 127.5,170.5 128.5,172.5C 126.708,172.366 125.042,172.699 123.5,173.5C 123.443,172.391 123.11,171.391 122.5,170.5C 121.833,170.5 121.5,170.167 121.5,169.5C 121.835,167.997 121.835,166.664 121.5,165.5 Z"/></g>
<g><path style="opacity:1" fill="#1d894a" d="M 182.5,131.5 C 187.024,136.219 189.691,141.885 190.5,148.5C 189.883,156.762 188.716,165.096 187,173.5C 186.667,173.833 186.333,174.167 186,174.5C 183.699,173.133 181.199,172.466 178.5,172.5C 178.53,171.503 178.03,170.836 177,170.5C 173.222,171.633 170.055,173.633 167.5,176.5C 166.52,173.914 166.187,171.247 166.5,168.5C 168.093,169.348 169.26,170.681 170,172.5C 173.112,169.875 175.779,166.875 178,163.5C 179.312,166.481 181.312,168.815 184,170.5C 185.867,169.623 187.034,168.123 187.5,166C 187.633,158.707 187.466,151.207 187,143.5C 185.128,137.788 181.295,134.454 175.5,133.5C 177.096,130.414 179.429,129.747 182.5,131.5 Z"/></g>
<g><path style="opacity:1" fill="#accfb6" d="M 74.5,168.5 C 76.1667,168.5 77.8333,168.5 79.5,168.5C 79.5277,172.484 77.861,173.484 74.5,171.5C 74.5,170.5 74.5,169.5 74.5,168.5 Z"/></g>
<g><path style="opacity:1" fill="#4c956b" d="M 24.5,152.5 C 23.7659,153.708 23.4326,155.041 23.5,156.5C 24.9305,156.579 26.2638,156.246 27.5,155.5C 29.0682,160.612 32.4015,162.612 37.5,161.5C 37.8333,161.5 38.1667,161.5 38.5,161.5C 38.8731,164.849 40.5398,165.849 43.5,164.5C 43.8333,164.5 44.1667,164.5 44.5,164.5C 44.5743,166.411 45.5743,167.578 47.5,168C 50.2605,168.722 52.9272,168.555 55.5,167.5C 56.1667,167.5 56.5,167.833 56.5,168.5C 57.17,171.503 58.8367,172.17 61.5,170.5C 61.8333,170.5 62.1667,170.5 62.5,170.5C 63.9669,173.897 65.9669,174.23 68.5,171.5C 69.0577,172.79 70.0577,173.623 71.5,174C 80.2512,176.054 88.9179,176.72 97.5,176C 98.2438,174.961 99.2438,174.461 100.5,174.5C 100.833,174.5 101.167,174.5 101.5,174.5C 102.167,174.5 102.5,174.833 102.5,175.5C 102.439,177.592 101.439,179.092 99.5,180C 112.362,179.553 125.029,178.053 137.5,175.5C 135.259,176.621 132.925,177.787 130.5,179C 94.1772,185.39 59.8439,179.89 27.5,162.5C 26.0345,166.064 24.8678,169.73 24,173.5C 23.6322,174.91 22.7989,175.91 21.5,176.5C 18.5,173.167 15.5,169.833 12.5,166.5C 9.93722,168.108 7.93722,170.275 6.5,173C 4.86586,173.494 3.19919,173.66 1.5,173.5C 1.5,172.167 1.5,170.833 1.5,169.5C 2.15561,170.278 2.98894,170.944 4,171.5C 5.85394,169.977 7.35394,168.144 8.5,166C 10.6237,164.418 12.7904,164.251 15,165.5C 16.0817,169.791 18.5817,171.791 22.5,171.5C 23.3943,167.143 25.061,163.143 27.5,159.5C 25.8917,158.682 24.2251,158.015 22.5,157.5C 20.9103,154.83 21.577,153.163 24.5,152.5 Z"/></g>
<g><path style="opacity:1" fill="#1f884b" d="M 137.5,175.5 C 125.029,178.053 112.362,179.553 99.5,180C 101.439,179.092 102.439,177.592 102.5,175.5C 105.886,176.504 109.219,176.17 112.5,174.5C 112.833,174.5 113.167,174.5 113.5,174.5C 116.881,174.54 120.214,174.207 123.5,173.5C 125.042,172.699 126.708,172.366 128.5,172.5C 131.579,170.98 134.912,170.147 138.5,170C 139.756,169.583 140.423,168.75 140.5,167.5C 143.059,167.802 145.393,167.468 147.5,166.5C 148.167,166.5 148.833,166.5 149.5,166.5C 152.316,166.175 154.816,165.175 157,163.5C 158.487,164.253 158.654,165.086 157.5,166C 150.43,168.369 143.763,171.536 137.5,175.5 Z"/></g>
<g><path style="opacity:1" fill="#619b7e" d="M 190.5,148.5 C 190.742,158.902 190.075,169.235 188.5,179.5C 187.448,179.649 186.448,179.483 185.5,179C 183.271,176.6 180.937,174.433 178.5,172.5C 181.199,172.466 183.699,173.133 186,174.5C 186.333,174.167 186.667,173.833 187,173.5C 188.716,165.096 189.883,156.762 190.5,148.5 Z"/></g>
</svg>
